<?xml version="1.0" standalone="no"?>
<!DOCTYPE svg PUBLIC "-//W3C//DTD SVG 20010904//EN"
 "http://www.w3.org/TR/2001/REC-SVG-20010904/DTD/svg10.dtd">
<svg version="1.0" xmlns="http://www.w3.org/2000/svg"
 width="4000.000000pt" height="3500.000000pt" viewBox="0 0 4000.000000 3500.000000"
 preserveAspectRatio="xMidYMid meet">

<g transform="translate(0.000000,3500.000000) scale(0.100000,-0.100000)"
fill="#ec4899" stroke="none">
<path d="M19917 33573 c-4 -3 -170 -12 -369 -19 -200 -7 -385 -17 -411 -23
-26 -6 -94 -16 -150 -22 -56 -5 -127 -16 -157 -24 -30 -7 -77 -16 -105 -20
-27 -3 -84 -15 -125 -25 -41 -10 -104 -23 -140 -28 -88 -13 -197 -40 -245 -62
-22 -10 -65 -20 -96 -24 -72 -8 -187 -43 -216 -66 -13 -10 -44 -21 -70 -25
-62 -9 -204 -50 -242 -70 -17 -8 -37 -15 -45 -15 -14 0 -143 -48 -201 -75 -67
-32 -129 -55 -144 -55 -9 0 -26 -6 -37 -14 -40 -29 -118 -66 -158 -77 -22 -6
-53 -22 -69 -35 -16 -13 -61 -33 -100 -45 -40 -12 -81 -29 -92 -38 -33 -28
-67 -47 -109 -61 -22 -7 -65 -30 -95 -51 -31 -22 -64 -39 -73 -39 -9 0 -29
-10 -45 -22 -51 -41 -88 -65 -112 -73 -13 -4 -39 -18 -58 -31 -19 -13 -58 -35
-87 -49 -28 -14 -71 -41 -96 -60 -25 -18 -50 -34 -57 -34 -7 -1 -35 -21 -63
-46 -28 -25 -57 -45 -65 -45 -8 0 -23 -10 -34 -22 -23 -24 -169 -129 -216
-154 -16 -9 -47 -32 -68 -50 -20 -19 -41 -34 -45 -34 -4 0 -33 -24 -64 -52
-30 -29 -85 -75 -122 -103 -37 -27 -80 -64 -95 -81 -16 -17 -36 -36 -45 -41
-33 -18 -441 -403 -500 -472 -12 -13 -34 -38 -51 -55 -16 -17 -40 -44 -52 -59
-11 -16 -75 -88 -140 -160 -234 -258 -611 -773 -745 -1015 -17 -31 -37 -64
-44 -72 -7 -8 -29 -46 -49 -85 -114 -216 -143 -271 -200 -385 -107 -217 -201
-422 -241 -525 -122 -320 -232 -657 -290 -888 -13 -54 -30 -119 -38 -145 -8
-26 -21 -92 -31 -147 -9 -55 -22 -118 -30 -140 -13 -38 -36 -168 -69 -395 -22
-153 -25 -175 -36 -280 -5 -52 -15 -151 -22 -220 -20 -199 -23 -937 -4 -1090
9 -69 20 -181 26 -250 14 -166 27 -277 34 -289 3 -5 13 -72 21 -148 23 -218
34 -294 49 -353 8 -30 22 -100 31 -155 9 -55 25 -138 35 -185 11 -47 26 -119
35 -160 9 -41 27 -120 41 -175 13 -55 30 -129 38 -165 7 -36 25 -103 38 -150
14 -47 33 -116 43 -155 9 -38 23 -88 30 -110 7 -22 21 -69 30 -105 9 -36 25
-90 35 -120 10 -30 40 -122 65 -205 60 -191 64 -204 120 -360 26 -71 53 -149
60 -173 8 -24 26 -69 39 -100 14 -31 46 -115 72 -187 25 -71 61 -163 80 -203
19 -40 34 -77 34 -83 0 -5 14 -38 31 -72 18 -34 42 -89 55 -122 12 -33 34 -84
48 -112 14 -29 26 -55 26 -57 0 -3 23 -53 51 -113 28 -59 69 -146 91 -193 135
-287 393 -771 580 -1090 163 -276 443 -704 628 -960 142 -197 130 -180 281
-370 63 -80 136 -172 161 -205 26 -33 58 -73 73 -90 149 -170 219 -249 269
-305 127 -140 502 -512 652 -646 88 -78 182 -164 209 -191 65 -64 136 -121
228 -186 41 -29 108 -75 148 -104 167 -118 187 -131 210 -138 13 -4 38 -20 54
-35 45 -41 398 -250 520 -307 28 -13 68 -33 90 -45 121 -66 265 -131 395 -178
58 -21 137 -50 175 -65 39 -15 95 -33 125 -40 30 -7 75 -20 100 -29 25 -9 76
-19 113 -21 38 -2 75 -9 83 -16 33 -27 17 -90 -60 -245 -79 -160 -173 -375
-201 -464 -10 -30 -21 -59 -25 -65 -13 -18 -57 -157 -75 -235 -9 -41 -21 -88
-26 -104 -14 -44 -11 -107 7 -160 14 -40 23 -50 67 -72 27 -14 80 -30 115 -35
36 -5 86 -17 111 -25 34 -12 102 -17 251 -21 218 -6 398 5 545 32 50 9 113 20
142 25 28 5 79 20 113 33 l61 25 52 -20 c60 -23 200 -48 272 -48 28 0 64 -7
80 -16 68 -37 620 -43 746 -9 30 8 77 20 104 26 78 18 154 57 177 93 28 45 19
176 -22 314 -33 113 -108 326 -145 412 -13 30 -46 107 -73 170 -27 64 -73 166
-101 227 -28 62 -51 119 -51 127 0 22 44 45 94 50 45 4 194 46 251 70 17 8 46
17 65 21 19 4 48 14 65 23 16 8 71 30 120 47 174 62 490 215 710 344 66 38
145 84 175 102 104 60 345 225 484 329 265 201 241 181 511 419 331 293 882
879 1110 1182 11 15 65 84 121 155 346 443 714 1006 1024 1568 207 376 372
706 540 1081 39 88 77 174 85 190 23 52 114 273 141 343 15 37 40 101 56 142
120 310 259 715 362 1060 163 548 294 1141 383 1740 l28 185 0 1020 0 1020
-32 181 c-132 746 -301 1297 -593 1932 -556 1207 -1466 2278 -2570 3025 -225
152 -262 175 -510 318 -378 219 -976 483 -1345 595 -49 15 -137 42 -195 61
-58 18 -136 40 -175 48 -38 7 -90 20 -115 28 -78 25 -183 49 -250 59 -36 5
-101 18 -145 28 -44 11 -100 23 -125 26 -25 3 -71 12 -102 20 -31 8 -119 18
-195 24 -76 5 -154 15 -173 21 -22 7 -149 14 -342 18 -225 4 -310 9 -320 19
-13 13 -278 18 -291 5z m4540 -9174 c374 -94 634 -509 668 -1064 11 -181 -23
-454 -82 -660 -167 -583 -577 -1048 -1008 -1141 -81 -18 -236 -20 -313 -5
-399 79 -683 511 -709 1078 -25 561 200 1148 578 1507 272 260 574 359 866
285z"/>
</g>
</svg>
