<svg xmlns="http://www.w3.org/2000/svg" version="1.1" xmlns:xlink="http://www.w3.org/1999/xlink" xmlns:svgjs="http://svgjs.com/svgjs" width="1440" height="560" preserveAspectRatio="none" viewBox="0 0 1440 560"><g mask="url(&quot;#SvgjsMask1036&quot;)" fill="none"><rect width="1440" height="560" x="0" y="0" fill="#0e2a47"></rect><path d="M733.3510327005381 557.738398703054L648.9797448389696 417.3209954155563 508.56234155147183 501.69228327712483 592.9336294130403 642.1096865646225z" fill="rgba(249, 168, 212, 1)" class="triangle-float3"></path><path d="M845.701,89.592C871.726,89.349,899.446,83.569,912.802,61.231C926.433,38.434,919.833,10.355,906.974,-12.886C893.601,-37.056,873.323,-59.803,845.701,-60.044C817.774,-60.288,796.297,-38.281,782.548,-13.972C769.053,9.888,762.117,39.103,776.389,62.507C790.231,85.206,819.116,89.841,845.701,89.592" fill="rgba(249, 168, 212, 1)" class="triangle-float1"></path><path d="M159.834,170.239C185.979,171.704,209.109,154.7,222.477,132.183C236.157,109.141,240.055,80.642,226.879,57.308C213.506,33.624,187.006,20.032,159.834,21.242C134.518,22.369,113.598,40.123,102.389,62.85C92.4,83.103,97.622,105.873,108.273,125.785C119.745,147.231,135.55,168.879,159.834,170.239" fill="rgba(249, 168, 212, 1)" class="triangle-float3"></path><path d="M603.6392666835345 542.5263087675796L691.4930658146474 471.3837049756831 620.3504620227509 383.52990584457024 532.4966628916379 454.67250963646677z" fill="rgba(249, 168, 212, 1)" class="triangle-float3"></path><path d="M815.511,154.961C836.192,154.399,849.47,135.151,859.11,116.845C867.932,100.093,871.812,80.987,863.399,64.026C853.975,45.027,836.715,29.363,815.511,28.948C793.712,28.521,774.473,42.821,764.263,62.086C754.67,80.187,757.713,101.393,767.61,119.33C777.915,138.005,794.19,155.54,815.511,154.961" fill="rgba(249, 168, 212, 1)" class="triangle-float2"></path><path d="M643.97,355.113C683.482,356.033,708.848,317.808,728.125,283.305C746.769,249.935,762.435,210.461,743.268,177.389C724.137,144.38,682.1,136.814,643.97,138.099C608.469,139.295,572.716,152.573,555.625,183.712C539.05,213.911,550.557,248.918,566.34,279.539C584.074,313.945,605.273,354.212,643.97,355.113" fill="rgba(249, 168, 212, 1)" class="triangle-float3"></path><path d="M199.98970990695872 325.95256682520204L142.8629160080694 454.26144669735453 271.1717958802219 511.38824059624386 328.29858977911124 383.0793607240914z" fill="rgba(249, 168, 212, 1)" class="triangle-float2"></path><path d="M520.7275664340477 3.5810515883921994L538.6784681007989 105.38567385678252 682.4099506700088 27.557010222460683z" fill="rgba(249, 168, 212, 1)" class="triangle-float1"></path><path d="M1257.879,286.731C1277.526,286.474,1292.576,271.51,1302.467,254.532C1312.441,237.41,1317.97,216.959,1308.741,199.424C1298.948,180.819,1278.903,170.01,1257.879,169.818C1236.511,169.623,1215.581,179.701,1205.383,198.48C1195.573,216.545,1200.717,238.056,1211.227,255.723C1221.458,272.923,1237.868,286.992,1257.879,286.731" fill="rgba(249, 168, 212, 1)" class="triangle-float1"></path><path d="M1075.2838591264983 446.6250139772849L1142.5730381096564 554.5389238401395 1196.4693932478556 457.3073253357597z" fill="rgba(249, 168, 212, 1)" class="triangle-float2"></path></g><defs><mask id="SvgjsMask1036"><rect width="1440" height="560" fill="#ffffff"></rect></mask><style>
            @keyframes float1 {
                0%{transform: translate(0, 0)}
                50%{transform: translate(-10px, 0)}
                100%{transform: translate(0, 0)}
            }

            .triangle-float1 {
                animation: float1 5s infinite;
            }

            @keyframes float2 {
                0%{transform: translate(0, 0)}
                50%{transform: translate(-5px, -5px)}
                100%{transform: translate(0, 0)}
            }

            .triangle-float2 {
                animation: float2 4s infinite;
            }

            @keyframes float3 {
                0%{transform: translate(0, 0)}
                50%{transform: translate(0, -10px)}
                100%{transform: translate(0, 0)}
            }

            .triangle-float3 {
                animation: float3 6s infinite;
            }
        </style></defs></svg>